<svg width="64" height="64" viewBox="0 0 64 64" fill="none" xmlns="http://www.w3.org/2000/svg">
  <rect width="64" height="64" rx="14" fill="#020916"/>
  <path d="M30.8 13.2c-5.9-2.5-12.9.9-14 7.7-4.5 1.3-7.6 5.7-6.5 10.4.5 2.4 2.1 4.4 4.1 5.5-1.1 4.6 2.1 9.1 6.7 9.7 2.1 3.8 5.9 5.7 9.7 4.5V13.2Z" fill="rgba(117,240,255,0.14)" stroke="#75F0FF" stroke-width="3.4" stroke-linecap="round" stroke-linejoin="round"/>
  <path d="M33.2 13.2c5.9-2.5 12.9.9 14 7.7 4.5 1.3 7.6 5.7 6.5 10.4-.5 2.4-2.1 4.4-4.1 5.5 1.1 4.6-2.1 9.1-6.7 9.7-2.1 3.8-5.9 5.7-9.7 4.5V13.2Z" fill="rgba(37,188,255,0.16)" stroke="#75F0FF" stroke-width="3.4" stroke-linecap="round" stroke-linejoin="round"/>
  <path d="M20.8 24.2c3 .2 5.1 1.9 6.3 4.6" stroke="#EAFBFF" stroke-width="3" stroke-linecap="round"/>
  <path d="M43.2 24.2c-3 .2-5.1 1.9-6.3 4.6" stroke="#EAFBFF" stroke-width="3" stroke-linecap="round"/>
  <path d="M21.2 37.2c2.5-.5 4.8.3 6.5 2.2" stroke="#EAFBFF" stroke-width="3" stroke-linecap="round"/>
  <path d="M42.8 37.2c-2.5-.5-4.8.3-6.5 2.2" stroke="#EAFBFF" stroke-width="3" stroke-linecap="round"/>
</svg>